<?xml version="1.0" standalone="no"?><!DOCTYPE svg PUBLIC "-//W3C//DTD SVG 1.1//EN" "http://www.w3.org/Graphics/SVG/1.1/DTD/svg11.dtd"><svg t="1762932342435" class="icon" viewBox="0 0 1024 1024" version="1.1" xmlns="http://www.w3.org/2000/svg" p-id="6815" xmlns:xlink="http://www.w3.org/1999/xlink" width="200" height="200"><path d="M0 0m256 0l512 0q256 0 256 256l0 512q0 256-256 256l-512 0q-256 0-256-256l0-512q0-256 256-256Z" fill="#EC3535" p-id="6816"></path><path d="M577.728 253.184h1.92c15.168 0.32 118.848 4.16 215.488 54.336a213.12 213.12 0 0 1-80.768 65.152c10.496-55.68-114.752-48.448-114.752-48.448l-90.432 527.04-90.368-527.04s-125.248-7.232-114.752 48.448a214.208 214.208 0 0 1-80.832-65.088c96.64-50.24 200.32-54.08 215.552-54.4h1.92l68.48 61.824 68.544-61.824z m-88.576-28.16c-141.44 3.264-236.16 40.96-278.976 64a213.184 213.184 0 0 1-21.12-42.88s107.776-72.832 320.128-72.832l20.224 0.192c199.04 4.416 299.968 72.704 299.968 72.704s-6.016 18.752-21.248 42.752c-44.8-24.128-146.496-64.192-298.88-64.192z" fill="#FFFFFF" p-id="6817"></path></svg>